<?xml version="1.0" standalone="no"?>
<!DOCTYPE svg PUBLIC "-//W3C//DTD SVG 20010904//EN"
 "http://www.w3.org/TR/2001/REC-SVG-20010904/DTD/svg10.dtd">
<svg version="1.0" xmlns="http://www.w3.org/2000/svg"
 width="94.000000pt" height="94.000000pt" viewBox="0 0 94.000000 94.000000"
 preserveAspectRatio="xMidYMid meet">

<g transform="translate(0.000000,94.000000) scale(0.100000,-0.100000)"
fill="#000000" stroke="none">
<path d="M443 675 c-39 -36 -76 -65 -82 -65 -34 0 23 -103 77 -138 22 -15 22
-15 -3 29 -39 69 -34 96 30 168 50 56 61 71 52 71 -1 0 -35 -29 -74 -65z"/>
<path d="M560 684 c-19 -13 -41 -38 -48 -55 -8 -20 -18 -29 -27 -25 -21 8 -19
-23 5 -62 23 -37 26 -72 8 -90 -9 -9 -9 -12 0 -12 18 0 62 46 62 65 0 9 -9 29
-21 44 -30 40 -19 81 34 126 47 40 39 46 -13 9z"/>
<path d="M313 463 c-13 -2 -23 -8 -23 -13 0 -17 16 -17 45 1 29 18 24 21 -22
12z"/>
<path d="M656 463 c-17 -4 -16 -6 5 -17 40 -19 37 -67 -6 -110 -40 -40 -33
-45 23 -17 60 30 80 93 42 131 -20 20 -29 22 -64 13z"/>
<path d="M232 424 c2 -13 18 -23 48 -31 25 -6 47 -12 50 -13 11 -4 89 1 165
11 56 7 86 16 100 30 20 19 20 19 -15 12 -46 -10 -276 -9 -318 2 -30 7 -34 5
-30 -11z"/>
<path d="M294 355 c-3 -8 -3 -19 0 -24 18 -28 155 -40 231 -20 70 18 71 18 47
35 -17 12 -29 13 -67 3 -50 -13 -152 -6 -168 10 -15 15 -37 14 -43 -4z"/>
<path d="M320 275 c-12 -15 -12 -19 4 -30 39 -29 189 -27 243 3 14 8 13 12 -8
26 -20 13 -32 14 -63 5 -38 -11 -101 -8 -142 5 -13 5 -25 2 -34 -9z"/>
<path d="M196 237 c-10 -7 -17 -22 -15 -32 11 -54 183 -87 348 -67 133 17 195
52 177 98 -8 18 -9 18 -18 -2 -14 -29 -46 -43 -136 -55 -114 -16 -312 5 -312
33 0 5 15 15 33 23 l32 14 -46 1 c-25 0 -53 -6 -63 -13z"/>
<path d="M740 161 c-48 -36 -122 -54 -236 -59 -64 -2 -135 1 -164 7 -29 6 -55
9 -57 7 -8 -7 66 -26 150 -37 138 -19 299 18 325 76 14 30 14 29 -18 6z"/>
</g>
</svg>
